<svg xmlns="http://www.w3.org/2000/svg" width="1254" height="1254" viewBox="0 0 2508 2508" role="img" aria-label="사피 로고">
<title>사피 로고</title>
<g transform="translate(0.000000,2508.000000) scale(0.100000,-0.100000)" fill="currentColor" stroke="none">
<path d="M12080 24589 c-342 -17 -520 -33 -920 -79 -493 -58 -1059 -169 -1625
-320 -1038 -276 -2147 -766 -3155 -1393 -1188 -739 -2241 -1674 -3065 -2721
-215 -273 -223 -284 -361 -476 -1125 -1560 -1853 -3333 -2143 -5220 -62 -399
-88 -622 -116 -975 -103 -1325 47 -2779 425 -4120 5 -16 12 -41 15 -55 75
-276 279 -860 428 -1225 412 -1009 947 -1929 1636 -2815 128 -165 440 -536
537 -639 39 -42 102 -112 141 -156 88 -99 462 -469 643 -636 74 -68 137 -126
140 -129 3 -3 39 -34 80 -70 41 -36 77 -67 80 -70 28 -28 178 -153 320 -266
1733 -1381 3696 -2246 5770 -2543 323 -47 392 -55 700 -80 1196 -101 2327 -20
3510 250 160 37 218 51 440 110 749 199 1462 473 2195 844 757 383 1346 753
2015 1266 146 112 482 387 510 418 3 4 48 44 100 91 92 82 150 136 329 305
320 303 677 690 1024 1110 269 327 689 920 934 1320 258 422 620 1132 809
1588 410 990 642 1826 814 2937 55 353 94 783 111 1240 12 306 6 924 -11 1150
-6 74 -15 200 -21 280 -18 244 -50 518 -99 840 -59 394 -148 833 -240 1185
-23 88 -46 177 -51 199 -42 176 -258 846 -349 1081 -227 585 -469 1103 -755
1620 -322 578 -733 1189 -1134 1685 -104 128 -351 422 -371 440 -3 3 -43 48
-90 100 -46 52 -130 142 -186 200 -56 58 -133 138 -171 178 -152 164 -667 635
-908 832 -1195 973 -2463 1678 -3860 2145 -128 43 -160 52 -463 141 -435 127
-1089 270 -1484 325 -38 5 -101 14 -140 19 -325 45 -526 64 -907 85 -280 16
-815 18 -1081 4z m876 -379 c461 -17 804 -47 1224 -106 115 -16 284 -45 400
-67 41 -9 86 -17 100 -20 14 -3 72 -15 130 -27 58 -12 124 -26 148 -31 317
-64 838 -214 1312 -377 674 -233 1427 -590 2125 -1010 777 -467 1484 -1017
2139 -1662 662 -652 1233 -1358 1694 -2097 29 -46 75 -120 104 -165 145 -231
359 -619 500 -903 118 -239 298 -629 298 -645 0 -6 -1714 -10 -4645 -10
l-4645 0 2 623 3 622 3083 1 c1696 1 3086 4 3089 8 15 14 -295 395 -531 651
-386 421 -1020 995 -1382 1252 -33 23 -95 67 -139 99 -172 123 -648 435 -764
500 -31 17 -95 54 -143 82 -132 77 -452 243 -580 301 -38 17 -98 45 -135 62
-338 156 -939 372 -1323 475 -773 208 -1510 311 -2345 329 -93 2 -173 4 -178
4 -4 1 -6 65 -5 144 l3 142 270 -2 c965 -9 2016 -196 2945 -524 209 -74 466
-175 600 -236 30 -14 96 -43 145 -65 165 -72 589 -288 728 -370 26 -15 50 -28
52 -28 4 0 214 -125 370 -220 268 -164 658 -443 985 -704 578 -462 1254 -1153
1639 -1675 42 -57 96 -131 121 -165 l45 -61 435 0 c397 0 435 1 434 16 -4 52
-507 754 -722 1009 -656 776 -1286 1366 -1997 1870 -88 62 -196 139 -240 170
-320 227 -1064 639 -1520 840 -397 176 -861 352 -1080 410 -16 5 -91 27 -165
49 -593 182 -1264 313 -1995 390 -198 21 -595 41 -822 41 l-233 0 0 538 c0
296 3 542 7 545 9 10 156 9 459 -3z m-844 -12 c2 -7 0 -1325 -4 -2928 -4
-1875 -3 -2919 3 -2925 6 -6 144 -10 367 -11 196 -1 444 -2 550 -3 l192 -1 -2
-617 -3 -618 -554 -3 c-429 -2 -557 -5 -563 -15 -4 -6 -8 -715 -8 -1574 l0
-1563 -177 -1 c-930 -4 -1515 -1 -1524 8 -8 8 -7 461 1 1454 15 1904 28 6422
19 6433 -27 32 -1001 -270 -1304 -404 -22 -10 -74 -32 -115 -48 -118 -47 -231
-99 -607 -278 -34 -16 -62 -32 -63 -36 0 -5 27 -8 59 -8 88 0 90 26 -19 -280
-29 -80 -56 -156 -60 -170 -4 -14 -36 -104 -70 -200 -34 -96 -67 -193 -75
-215 -22 -68 -98 -285 -235 -670 -73 -203 -156 -442 -186 -530 -30 -88 -73
-209 -94 -270 -105 -295 -131 -375 -125 -385 4 -7 116 -10 332 -10 179 1 326
0 327 -2 6 -7 46 -98 46 -103 0 -2 14 -34 30 -70 16 -36 30 -68 30 -70 0 -2
12 -30 27 -62 14 -32 52 -116 83 -188 50 -113 88 -196 207 -455 14 -30 42 -93
63 -140 21 -47 59 -130 85 -185 26 -55 53 -113 60 -130 7 -16 36 -79 64 -139
28 -59 51 -110 51 -111 0 -4 71 -155 142 -305 51 -105 95 -202 126 -270 43
-96 122 -264 243 -518 38 -79 69 -145 69 -147 0 -2 29 -64 65 -139 36 -75 94
-197 130 -272 36 -75 65 -138 65 -140 0 -2 14 -32 30 -66 16 -34 30 -65 30
-70 0 -4 -384 -7 -852 -6 l-853 3 -40 81 c-52 105 -142 293 -200 419 -26 55
-64 136 -85 180 -21 44 -55 116 -75 160 -21 44 -60 127 -87 185 -110 229 -145
304 -242 513 -20 42 -52 112 -72 155 -20 42 -50 106 -66 141 -43 95 -93 200
-165 351 -36 74 -71 150 -79 168 -8 17 -18 32 -22 32 -15 0 -75 -99 -379 -630
-97 -168 -233 -404 -303 -525 -70 -121 -174 -301 -230 -400 -56 -99 -190 -327
-298 -508 l-196 -327 -848 0 c-486 0 -848 4 -848 9 0 9 117 217 197 350 45 74
64 107 111 191 14 25 46 81 72 125 107 181 193 330 290 500 57 99 131 227 165
285 34 58 76 130 92 160 17 30 55 98 85 150 30 52 72 129 95 170 22 41 81 147
130 235 198 353 248 447 443 835 279 557 491 1050 649 1515 113 328 149 445
137 445 -33 -1 -508 -464 -749 -733 -494 -548 -851 -1043 -1230 -1702 -111
-193 -334 -637 -425 -845 -84 -194 -91 -210 -126 -299 -285 -724 -478 -1421
-580 -2086 -163 -1065 -164 -1839 -5 -2930 116 -793 362 -1657 676 -2370 22
-49 51 -115 64 -145 41 -94 253 -520 309 -620 101 -183 168 -298 236 -410 65
-105 68 -110 79 -110 35 0 167 470 212 755 24 152 24 511 0 690 -20 147 -64
363 -102 505 -119 441 -157 613 -197 885 -17 121 -17 525 1 625 124 698 454
1198 1121 1700 47 35 101 75 120 90 78 59 252 171 257 166 3 -3 -11 -31 -31
-62 -405 -610 -604 -1212 -600 -1819 3 -292 31 -480 134 -870 78 -300 162
-646 184 -760 54 -281 66 -563 32 -775 -88 -555 -372 -1010 -854 -1370 -39
-29 -72 -61 -72 -69 1 -36 326 -463 567 -743 508 -591 952 -1007 1578 -1479
238 -179 236 -177 430 -307 427 -283 852 -523 1260 -709 50 -23 119 -55 155
-71 36 -17 89 -40 119 -52 30 -11 73 -29 95 -40 238 -108 799 -302 1131 -390
423 -113 769 -187 1095 -234 798 -115 1528 -133 2245 -55 156 17 541 68 635
85 47 8 108 19 135 24 124 22 425 88 545 119 510 133 1013 307 1435 494 55 24
129 57 165 73 36 16 153 72 260 125 170 84 252 127 425 224 22 12 63 35 90 50
56 31 149 87 273 164 45 28 119 74 165 102 75 47 204 135 332 229 28 20 78 56
112 81 l62 44 3 4120 3 4120 915 0 915 0 3 -3205 c1 -1762 6 -3208 10 -3212
22 -22 440 571 644 912 201 335 347 607 452 840 47 104 106 233 116 255 57
120 264 659 300 780 10 33 44 143 75 244 31 102 67 228 80 280 13 53 37 150
54 216 17 66 41 163 52 215 12 52 25 111 29 130 16 68 49 247 74 400 198 1207
172 2395 -78 3570 -101 477 -264 1052 -389 1370 -125 318 -165 417 -231 565
-42 94 -81 178 -86 187 -26 47 -20 49 146 46 l156 -3 34 -85 c19 -47 57 -137
84 -200 27 -63 65 -156 84 -207 20 -50 42 -106 50 -125 8 -18 21 -49 29 -68
31 -71 176 -520 221 -680 25 -91 50 -178 55 -195 26 -78 104 -426 145 -641
149 -787 191 -1214 190 -1969 0 -475 -7 -612 -55 -1080 -38 -367 -149 -986
-239 -1330 -86 -328 -90 -343 -142 -510 -117 -383 -300 -865 -443 -1170 -247
-528 -465 -917 -756 -1350 -584 -871 -1392 -1738 -2164 -2323 -77 -58 -167
-127 -200 -152 -71 -54 -271 -194 -440 -307 -406 -271 -907 -541 -1440 -778
-16 -7 -50 -22 -75 -33 -656 -294 -1596 -560 -2365 -671 -476 -68 -735 -89
-1200 -98 -1083 -19 -2095 139 -3185 498 -244 80 -751 282 -1013 403 -99 46
-519 255 -532 266 -5 4 -46 27 -90 50 -540 291 -1143 713 -1670 1169 -444 385
-914 870 -1245 1287 -14 17 -50 62 -82 101 -184 227 -411 549 -610 863 -539
853 -927 1777 -1185 2825 -59 242 -94 412 -154 755 -37 217 -85 633 -111 965
-17 226 -17 1046 1 1255 48 590 101 987 181 1360 11 52 27 129 36 170 50 241
166 667 244 900 177 529 340 930 552 1355 107 216 311 579 432 770 38 61 87
139 109 175 98 160 258 390 449 648 380 513 1123 1276 1620 1664 71 56 79 65
94 117 9 31 36 121 60 201 25 80 51 165 58 190 8 25 29 104 47 175 18 72 36
135 40 141 6 7 142 9 446 6 l438 -4 80 42 c85 45 135 73 200 110 60 35 551
282 625 315 36 15 99 44 140 63 276 126 680 279 1022 386 142 45 205 63 528
147 85 23 158 46 162 52 4 7 8 175 8 375 0 303 -2 364 -14 368 -8 3 -68 -6
-133 -20 -1052 -226 -2055 -627 -3033 -1214 -445 -267 -839 -545 -1233 -871
-104 -86 -210 -173 -235 -194 -175 -144 -561 -514 -771 -737 -386 -412 -574
-640 -968 -1174 -266 -360 -579 -887 -833 -1401 -365 -740 -629 -1477 -829
-2315 -245 -1026 -338 -2121 -266 -3148 68 -979 318 -2112 663 -3007 11 -27
38 -99 61 -160 235 -612 701 -1482 1095 -2045 272 -388 433 -598 709 -918
1271 -1478 2828 -2534 4662 -3162 595 -204 1291 -366 1945 -454 674 -90 1202
-113 1803 -81 1063 58 1960 240 2998 608 582 207 1408 606 1893 915 843 538
1309 906 1943 1537 370 369 759 813 985 1125 14 19 64 88 112 153 260 352 511
744 676 1052 24 44 60 109 81 145 58 102 277 547 361 735 210 474 358 886 510
1430 73 261 179 720 214 929 121 723 155 1035 174 1617 36 1072 -136 2338
-464 3414 -103 340 -294 882 -348 988 -36 71 -69 67 542 67 l551 0 14 -33 c74
-178 267 -775 344 -1067 51 -192 136 -544 161 -665 47 -231 102 -540 120 -670
6 -44 15 -107 20 -140 44 -288 75 -605 101 -1015 16 -255 6 -1138 -15 -1405
-18 -219 -42 -468 -57 -585 -23 -182 -29 -221 -39 -286 -136 -872 -345 -1678
-630 -2429 -315 -831 -814 -1785 -1310 -2502 -885 -1280 -2033 -2379 -3370
-3225 -1071 -677 -2281 -1192 -3455 -1468 -71 -17 -157 -37 -190 -45 -33 -8
-82 -19 -110 -24 -27 -6 -95 -20 -149 -31 -55 -12 -137 -28 -183 -36 -46 -7
-122 -21 -170 -29 -113 -20 -332 -51 -448 -64 -297 -34 -397 -42 -860 -71
-409 -26 -1150 -3 -1655 50 -459 48 -1037 149 -1410 245 -30 8 -104 26 -165
41 -128 30 -425 115 -605 172 -2093 666 -3966 1908 -5416 3592 -1019 1183
-1882 2783 -2313 4290 -111 390 -213 818 -266 1125 -8 44 -21 121 -30 170 -9
50 -25 153 -36 230 -11 77 -24 167 -29 200 -57 380 -100 1023 -100 1490 0 366
9 547 50 1055 19 230 76 643 130 945 24 136 74 390 90 460 5 22 13 60 19 85
137 609 296 1130 511 1678 456 1165 1010 2124 1808 3131 420 530 1105 1224
1612 1634 41 33 111 91 155 127 66 55 284 221 540 411 259 192 890 585 1246
777 533 286 878 445 1461 671 264 102 751 255 1083 341 39 10 104 27 145 39
65 17 173 43 300 71 226 50 567 112 820 150 228 33 774 85 980 94 36 1 81 3
101 4 22 1 38 -3 41 -10z m-3682 -10745 c0 -3 -6 -14 -14 -22 -15 -17 -72
-107 -186 -296 -68 -110 -253 -465 -283 -540 -9 -22 -35 -85 -58 -140 -111
-267 -213 -638 -264 -965 -25 -159 -31 -503 -11 -671 22 -196 82 -485 179
-864 14 -55 33 -129 42 -165 9 -36 25 -99 36 -140 11 -41 23 -93 28 -115 147
-684 173 -1089 96 -1550 -48 -292 -106 -477 -230 -730 -257 -525 -687 -966
-1282 -1318 -132 -78 -291 -159 -303 -155 -5 2 37 79 94 171 252 408 450 904
547 1367 62 301 81 464 81 696 0 242 -21 408 -97 764 -8 36 -26 124 -40 195
-15 72 -53 236 -85 365 -70 280 -142 632 -172 842 -65 449 4 988 182 1435 257
644 798 1249 1545 1725 39 25 95 61 125 81 56 36 70 42 70 30z m8846 -1183 c0
-356 -4 -610 -9 -617 -10 -14 -6117 -20 -6151 -7 -14 6 -16 69 -16 620 l0 614
3088 -2 3087 -3 1 -605z m-7116 -375 c0 -3 -20 -36 -44 -73 -111 -171 -164
-272 -291 -552 -116 -256 -187 -476 -244 -755 -53 -261 -53 -484 -2 -740 37
-179 81 -362 138 -565 8 -30 19 -71 23 -90 4 -19 15 -57 23 -85 9 -27 25 -84
36 -125 17 -66 28 -114 62 -275 98 -466 67 -1016 -77 -1379 -195 -488 -475
-813 -998 -1161 -166 -109 -382 -232 -392 -222 -3 2 6 17 19 33 13 16 57 78
97 139 343 513 493 1015 493 1650 0 295 -14 387 -124 847 -167 698 -184 803
-184 1138 1 281 14 396 66 575 138 474 355 815 734 1158 188 170 665 516 665
482z m3272 -935 c4 -63 16 -275 28 -470 11 -195 25 -422 30 -505 9 -135 32
-512 60 -965 23 -373 42 -664 65 -1005 14 -198 31 -457 38 -575 l12 -215 455
-2 c250 -2 460 1 466 5 7 4 17 57 23 117 20 199 96 1096 120 1425 6 74 24 306
41 515 16 209 41 529 55 711 14 181 32 411 40 510 7 98 19 266 26 372 12 182
13 193 33 197 12 3 406 4 876 3 l855 -3 -1 -60 c0 -33 -7 -136 -16 -230 -9
-93 -22 -233 -28 -310 -6 -77 -15 -189 -20 -250 -5 -60 -14 -168 -20 -240 -6
-71 -15 -182 -20 -245 -5 -63 -14 -176 -20 -250 -6 -74 -15 -184 -20 -245 -5
-60 -14 -175 -20 -255 -6 -80 -15 -199 -20 -265 -6 -66 -15 -176 -20 -245 -6
-69 -15 -174 -20 -235 -5 -60 -15 -184 -21 -275 -6 -91 -19 -278 -30 -417 -10
-139 -19 -270 -19 -292 l0 -41 523 -2 522 -3 0 -620 0 -620 -3247 -3 -3248 -2
0 625 0 625 479 0 c318 0 482 3 486 10 4 6 2 106 -4 223 -6 117 -16 300 -21
407 -17 332 -56 971 -80 1315 -5 77 -14 211 -20 298 -5 86 -14 226 -20 310 -9
149 -20 311 -40 632 -20 325 -33 634 -27 649 6 15 91 16 884 14 l878 -3 7
-115z"/>
</g>
</svg>
