<svg version="1.1" id="Layer_1" xmlns="http://www.w3.org/2000/svg" xmlns:xlink="http://www.w3.org/1999/xlink" x="0px" y="0px"
	 width="100%" viewBox="0 0 557 557" enable-background="new 0 0 557 557" xml:space="preserve">
<path fill="#FEFEFE" opacity="1.000000" stroke="none" 
	d="
M1.000000,195.000000 
	C1.000000,130.014450 1.000000,65.528908 1.000000,1.021683 
	C186.610596,1.021683 372.221191,1.021683 557.915894,1.021683 
	C557.915894,186.568954 557.915894,372.137970 557.915894,557.853516 
	C372.333405,557.853516 186.666718,557.853516 1.000000,557.853516 
	C1.000000,437.111969 1.000000,316.306000 1.000000,195.000000 
M75.221817,447.270020 
	C88.625427,463.521576 103.617256,478.089203 120.339096,490.957733 
	C161.789093,522.856323 208.598434,540.952942 260.559296,545.812683 
	C282.392029,547.854614 304.043121,546.017944 325.610779,542.160645 
	C378.506073,532.700623 424.088745,508.827972 462.487335,471.661621 
	C508.267120,427.350922 534.685181,373.220367 542.216919,309.799011 
	C545.892639,278.847687 543.977844,248.277008 536.663147,218.185211 
	C523.364075,163.474045 496.128235,116.786674 453.791901,79.312744 
	C412.637787,42.885296 365.016113,20.633026 310.247589,13.810695 
	C282.701019,10.379308 255.382996,11.482121 228.416306,17.404800 
	C167.582764,30.765629 116.507256,61.180645 77.396980,109.586266 
	C26.732620,172.292038 7.061426,244.096375 19.942236,324.126862 
	C27.294952,369.810486 45.884823,410.597534 75.221817,447.270020 
z"/>
<path fill="#CE0303" opacity="1.000000" stroke="none" 
	d="
M75.028473,446.972839 
	C45.884823,410.597534 27.294952,369.810486 19.942236,324.126862 
	C7.061426,244.096375 26.732620,172.292038 77.396980,109.586266 
	C116.507256,61.180645 167.582764,30.765629 228.416306,17.404800 
	C255.382996,11.482121 282.701019,10.379308 310.247589,13.810695 
	C365.016113,20.633026 412.637787,42.885296 453.791901,79.312744 
	C496.128235,116.786674 523.364075,163.474045 536.663147,218.185211 
	C543.977844,248.277008 545.892639,278.847687 542.216919,309.799011 
	C534.685181,373.220367 508.267120,427.350922 462.487335,471.661621 
	C424.088745,508.827972 378.506073,532.700623 325.610779,542.160645 
	C304.043121,546.017944 282.392029,547.854614 260.559296,545.812683 
	C208.598434,540.952942 161.789093,522.856323 120.339096,490.957733 
	C103.617256,478.089203 88.625427,463.521576 75.028473,446.972839 
M340.548462,369.818756 
	C340.787079,369.627289 340.940704,369.382477 341.236481,368.445587 
	C344.965881,364.284698 348.695282,360.123779 352.709442,355.804291 
	C352.878265,355.656067 352.991302,355.473358 353.242157,354.601440 
	C353.299377,354.381195 353.356567,354.160919 353.619202,353.648529 
	C353.387146,353.441559 353.155060,353.234619 352.250183,352.877197 
	C342.630341,345.499115 332.823120,338.349518 323.453735,330.666046 
	C316.736450,325.157440 312.274780,318.634094 316.877045,309.162933 
	C318.151306,306.540619 318.957916,305.109711 322.031311,305.187683 
	C329.352936,305.373291 336.684509,305.363770 344.005798,305.181458 
	C345.283539,305.149628 347.604553,303.923676 347.627563,303.192108 
	C347.887146,294.939178 347.791962,286.675110 347.791962,277.941284 
	C337.283142,277.941284 327.538727,277.941284 317.338806,277.941284 
	C317.338806,272.195374 317.338806,266.934937 317.338806,261.538757 
	C304.653442,261.538757 292.442841,261.538757 279.822754,261.538757 
	C279.822754,267.165527 279.822754,272.426453 279.822754,278.176086 
	C269.018341,278.176086 258.618439,278.176086 248.245392,278.176086 
	C248.245392,287.449188 248.245392,296.213959 248.245392,305.446289 
	C259.602753,305.446289 270.660797,305.446289 282.318115,305.446289 
	C279.254578,316.637482 274.529816,326.418152 266.702118,333.970367 
	C258.920074,341.478546 249.967575,347.773590 241.279282,354.802094 
	C246.125839,360.770691 251.716980,367.354675 256.934021,374.222839 
	C259.162201,377.156158 260.839203,377.100586 263.888519,375.384338 
	C276.805664,368.114014 288.043793,358.906952 296.833649,348.288971 
	C308.608826,357.608948 320.306213,366.867340 332.407501,376.600433 
	C333.258484,376.367096 334.109497,376.133789 335.197357,375.285706 
	C336.270081,374.178680 337.342773,373.071655 338.703491,371.809906 
	C338.875397,371.665009 338.993134,371.484711 339.029327,371.062927 
	C339.029327,371.062927 339.236603,371.047180 339.602112,370.855286 
	C339.828186,370.678406 339.974213,370.450256 340.021088,370.033173 
	C340.021088,370.033173 340.159912,370.025513 340.548462,369.818756 
M186.076874,260.885986 
	C180.857483,264.722961 175.311020,268.190521 170.481003,272.467255 
	C156.883499,284.507111 147.818619,299.072662 145.650558,317.612244 
	C144.298019,329.178131 147.586243,339.973999 149.509186,351.055634 
	C151.401260,361.959381 154.129471,372.944031 154.133636,383.894073 
	C154.139267,398.691559 148.795868,412.492981 141.170624,425.255280 
	C140.323013,426.673920 139.575134,428.152191 138.421692,430.259094 
	C139.952988,429.850525 140.482895,429.826782 140.879745,429.584839 
	C144.426758,427.421844 148.065399,425.384491 151.461685,423.003021 
	C170.144730,409.902344 181.036209,392.338104 179.799072,369.082123 
	C179.223297,358.258759 176.719254,347.466492 174.335678,336.829010 
	C171.410217,323.773224 168.834396,310.854645 172.038712,297.464203 
	C175.128937,284.550476 180.641174,272.725250 187.966034,261.041321 
	C187.928055,260.781586 187.890076,260.521881 187.852097,260.262146 
	C187.487762,260.427460 187.123428,260.592743 186.076874,260.885986 
M360.517029,353.416809 
	C360.708099,354.955750 360.899170,356.494659 361.333069,358.935913 
	C361.259888,364.129303 361.186707,369.322662 361.460480,375.292206 
	C365.304596,375.234650 369.148743,375.177124 373.786285,374.960571 
	C374.859680,375.014984 375.933075,375.069397 377.575470,375.637177 
	C380.048370,375.468079 382.521240,375.298981 385.908539,374.969208 
	C389.189056,374.969208 392.469604,374.969208 396.008575,374.969208 
	C396.008575,338.743378 396.008575,303.053925 396.008575,267.229248 
	C384.383820,267.229248 372.996857,267.229248 361.131012,267.229248 
	C361.131012,281.901398 361.131012,296.287811 361.131012,311.151245 
	C354.582764,311.151245 348.501190,311.151245 341.941345,311.151245 
	C341.941345,319.745087 341.907562,327.860687 341.991760,335.975098 
	C342.000519,336.819122 342.708893,337.655914 343.804810,338.870758 
	C349.550049,339.253174 355.295319,339.635590 361.302155,340.910309 
	C361.231384,344.928864 361.160614,348.947388 360.517029,353.416809 
M267.364532,384.467987 
	C267.364532,393.400238 267.364532,402.332489 267.364532,411.781067 
	C312.925690,411.781067 358.166412,411.781067 403.904785,411.781067 
	C403.904785,424.247955 403.989746,436.200928 403.781403,448.148773 
	C403.759064,449.429932 402.276764,451.032227 401.054901,451.895935 
	C351.062592,487.235260 295.929840,499.370605 236.078033,486.435120 
	C199.223999,478.470001 166.803116,460.959198 138.980057,435.294617 
	C127.482552,424.689087 117.042526,413.155884 108.059898,400.112518 
	C110.373238,397.989044 112.457260,396.103088 114.511810,394.185577 
	C124.543381,384.822845 130.120514,373.403229 128.859406,359.573120 
	C128.126541,351.535858 126.329491,343.541473 124.391785,335.680481 
	C121.252975,322.946747 118.947861,310.166168 123.239037,297.402222 
	C125.940720,289.366150 129.832794,281.730255 133.312485,273.631775 
	C131.159943,275.073608 128.989532,276.433167 126.918106,277.929779 
	C110.477715,289.807922 99.749878,304.942627 101.194221,326.152222 
	C101.718910,333.857239 103.628914,341.541229 105.579918,349.060181 
	C109.390945,363.747467 109.277588,378.103088 103.618683,392.492523 
	C79.934189,358.106812 62.567348,298.652618 74.894524,237.199234 
	C83.252556,195.532791 117.499451,135.454697 141.919907,122.103920 
	C135.612854,141.498276 127.734604,160.017471 117.776901,177.625290 
	C107.798546,195.269608 97.718231,212.856277 87.253616,231.221069 
	C99.522789,231.221069 110.690292,231.394440 121.842468,231.058716 
	C123.813217,230.999374 126.481071,229.275909 127.532532,227.537842 
	C134.227249,216.471313 140.548508,205.179169 147.015076,193.974197 
	C150.045013,188.724060 153.124664,183.502609 156.417374,177.864807 
	C164.397446,194.790894 172.031616,211.143692 179.885498,227.390289 
	C180.659698,228.991821 182.752823,230.988907 184.280151,231.028824 
	C195.906693,231.332764 207.544769,231.195312 219.603836,231.195312 
	C219.147934,229.877045 218.948593,229.092834 218.616226,228.369781 
	C208.726059,206.853806 198.395615,185.525711 189.123718,163.746902 
	C185.207870,154.548935 180.867416,148.343277 169.835815,150.962433 
	C169.608139,151.016495 169.295898,150.714294 168.582031,150.358368 
	C172.199554,139.977310 175.839050,129.546341 179.469055,119.112068 
	C182.349274,110.833031 185.232864,102.555099 188.079498,94.264503 
	C188.677826,92.521950 188.584839,89.706749 189.718018,89.110367 
	C203.335083,81.943802 217.890656,77.266220 232.481659,73.338699 
	C232.481659,132.052124 232.481659,190.459229 232.481659,248.796112 
	C245.035629,248.796112 257.319550,248.796112 270.062134,248.796112 
	C270.062134,225.528809 270.062134,202.461945 270.062134,178.941467 
	C278.586304,178.941467 286.661346,178.941467 294.768982,178.941467 
	C294.768982,169.420578 294.768982,160.363129 294.768982,150.935837 
	C286.495178,150.935837 278.556305,150.935837 270.074219,150.935837 
	C270.074219,107.189629 270.074219,63.818352 270.074219,19.341335 
	C254.477081,21.836893 239.379349,23.322531 224.738693,26.756723 
	C162.715530,41.305218 112.588081,74.757149 74.976562,125.808113 
	C30.562258,186.092667 14.851507,254.026825 28.477760,327.618347 
	C39.861343,389.097839 70.219948,440.366486 119.176323,479.697021 
	C182.117859,530.262939 253.547974,549.805908 332.939178,532.584656 
	C406.578674,516.610962 462.613373,474.597412 500.820007,409.790436 
	C527.752991,364.106049 539.079773,314.339935 535.141907,261.235687 
	C533.351318,237.087463 528.483582,213.651749 520.051147,190.970261 
	C519.480164,189.434372 517.842285,187.236191 516.613098,187.177475 
	C509.181000,186.822479 501.723450,187.000793 493.847595,187.000793 
	C494.357605,188.605835 494.628082,189.699905 495.045441,190.734756 
	C504.623444,214.483810 509.957245,239.263947 511.769287,264.695343 
	C513.396423,287.531006 511.738373,310.277313 506.063110,332.553131 
	C484.195251,418.386200 431.000366,475.496399 347.325745,503.829071 
	C314.375885,514.986084 280.157104,517.341675 245.854279,511.538422 
	C188.532074,501.840698 140.571732,474.998077 102.981056,430.378876 
	C70.182541,391.447845 52.162102,346.276764 48.193630,295.690155 
	C45.896473,266.408020 49.569798,237.520599 58.637619,209.572662 
	C83.473412,133.026230 134.746948,82.218964 210.229141,55.415882 
	C217.340286,52.890778 224.826370,51.421589 232.749893,49.298283 
	C232.749893,54.126217 232.541092,58.104950 232.813950,62.050381 
	C233.044907,65.389839 231.756332,66.487411 228.548950,67.299919 
	C212.611572,71.337242 197.015259,76.561432 182.796188,84.907623 
	C174.830399,89.583328 166.688507,91.863266 157.672897,90.674896 
	C152.583389,90.004044 150.635040,92.188248 149.842621,96.860573 
	C148.645538,103.919029 145.034912,109.297005 139.519104,114.281319 
	C129.793671,123.069611 120.184807,132.294952 112.163460,142.609802 
	C67.993889,199.408569 53.964073,263.335052 70.742752,333.176849 
	C84.978806,392.434875 120.259598,436.835388 172.206573,468.028381 
	C212.999313,492.523468 257.452850,502.230682 304.605225,496.679718 
	C346.557800,491.740906 384.285797,475.766479 416.804047,448.347229 
	C465.332794,407.427948 491.625702,355.058167 495.745911,291.927032 
	C498.005615,257.303101 491.603546,223.813461 478.022980,191.789917 
	C475.725464,186.372299 475.264893,186.139847 468.896118,187.897980 
	C480.256104,211.674530 486.843781,236.790329 488.705292,262.944458 
	C490.557465,288.968018 488.345154,314.765594 480.808685,339.897583 
	C473.304138,364.923187 462.060455,388.030731 444.939758,409.767578 
	C444.939758,400.173187 444.939758,392.182068 444.452972,383.503662 
	C443.322235,383.330597 442.191589,383.006622 441.060791,383.006134 
	C384.787842,382.982178 328.514862,382.979370 272.241943,383.024139 
	C270.829254,383.025238 269.416992,383.585022 267.364532,384.467987 
M441.500000,178.959595 
	C466.090759,178.959595 490.681488,178.959595 515.445679,178.959595 
	C497.328461,134.483246 460.379272,84.752800 402.351654,52.216240 
	C364.091217,30.763313 322.964722,20.512547 279.344421,20.132015 
	C279.344421,28.697046 279.344421,36.613510 279.344421,44.920662 
	C318.999817,44.389603 356.047333,53.712772 390.442383,72.521194 
	C424.837097,91.329399 452.440521,117.679283 474.133972,151.040039 
	C468.827759,151.040039 464.303589,150.743881 459.838531,151.130432 
	C456.024780,151.460602 453.960480,149.769363 451.555695,147.071182 
	C441.710693,136.024933 432.351624,124.340309 421.294220,114.619026 
	C390.079590,87.176331 353.941193,69.375587 312.521027,63.372448 
	C301.575836,61.786133 290.462433,61.360332 279.375244,60.397213 
	C279.375244,63.489807 279.375244,65.521629 279.375244,67.648750 
	C348.442322,68.449287 402.943604,97.664291 446.813202,151.073334 
	C400.159576,151.073334 354.783203,151.073334 309.293701,151.073334 
	C309.293701,160.562439 309.293701,169.618347 309.293701,178.959442 
	C353.225128,178.959442 396.862579,178.959442 441.500000,178.959595 
M444.969940,351.500000 
	C444.969940,323.441711 444.969940,295.383423 444.969940,267.280579 
	C433.048950,267.280579 421.665894,267.280579 410.264648,267.280579 
	C410.264648,303.245697 410.264648,338.930725 410.264648,374.669495 
	C421.911530,374.669495 433.290527,374.669495 444.970215,374.669495 
	C444.970215,367.087921 444.970215,359.793945 444.969940,351.500000 
M205.846024,416.363525 
	C218.891403,404.014893 224.154892,388.952087 221.110977,371.242676 
	C219.937210,364.413666 218.187454,357.662262 216.339706,350.975067 
	C212.726059,337.896881 212.774078,325.070892 218.297272,312.509155 
	C220.738907,306.956024 223.325089,301.466431 225.845642,295.948029 
	C222.061874,297.434418 218.923080,299.658081 215.902939,302.032623 
	C203.454697,311.819824 194.863541,324.159637 194.749557,340.337952 
	C194.682739,349.822968 196.529312,359.474243 198.658936,368.789246 
	C202.731766,386.603912 202.458496,403.671021 193.021103,419.875275 
	C191.691360,422.158508 190.484207,424.513184 189.220322,426.834808 
	C189.521149,427.140411 189.821976,427.445984 190.122803,427.751587 
	C195.193512,424.119080 200.264206,420.486603 205.846024,416.363525 
z"/>
<path fill="#FDFAFA" opacity="1.000000" stroke="none" 
	d="
M444.939758,384.190948 
	C444.939758,392.182068 444.939758,400.173187 444.939758,409.767578 
	C462.060455,388.030731 473.304138,364.923187 480.808685,339.897583 
	C488.345154,314.765594 490.557465,288.968018 488.705292,262.944458 
	C486.843781,236.790329 480.256104,211.674530 468.896118,187.897980 
	C475.264893,186.139847 475.725464,186.372299 478.022980,191.789917 
	C491.603546,223.813461 498.005615,257.303101 495.745911,291.927032 
	C491.625702,355.058167 465.332794,407.427948 416.804047,448.347229 
	C384.285797,475.766479 346.557800,491.740906 304.605225,496.679718 
	C257.452850,502.230682 212.999313,492.523468 172.206573,468.028381 
	C120.259598,436.835388 84.978806,392.434875 70.742752,333.176849 
	C53.964073,263.335052 67.993889,199.408569 112.163460,142.609802 
	C120.184807,132.294952 129.793671,123.069611 139.519104,114.281319 
	C145.034912,109.297005 148.645538,103.919029 149.842621,96.860573 
	C150.635040,92.188248 152.583389,90.004044 157.672897,90.674896 
	C166.688507,91.863266 174.830399,89.583328 182.796188,84.907623 
	C197.015259,76.561432 212.611572,71.337242 228.548950,67.299919 
	C231.756332,66.487411 233.044907,65.389839 232.813950,62.050381 
	C232.541092,58.104950 232.749893,54.126217 232.749893,49.298283 
	C224.826370,51.421589 217.340286,52.890778 210.229141,55.415882 
	C134.746948,82.218964 83.473412,133.026230 58.637619,209.572662 
	C49.569798,237.520599 45.896473,266.408020 48.193630,295.690155 
	C52.162102,346.276764 70.182541,391.447845 102.981056,430.378876 
	C140.571732,474.998077 188.532074,501.840698 245.854279,511.538422 
	C280.157104,517.341675 314.375885,514.986084 347.325745,503.829071 
	C431.000366,475.496399 484.195251,418.386200 506.063110,332.553131 
	C511.738373,310.277313 513.396423,287.531006 511.769287,264.695343 
	C509.957245,239.263947 504.623444,214.483810 495.045441,190.734756 
	C494.628082,189.699905 494.357605,188.605835 493.847595,187.000793 
	C501.723450,187.000793 509.181000,186.822479 516.613098,187.177475 
	C517.842285,187.236191 519.480164,189.434372 520.051147,190.970261 
	C528.483582,213.651749 533.351318,237.087463 535.141907,261.235687 
	C539.079773,314.339935 527.752991,364.106049 500.820007,409.790436 
	C462.613373,474.597412 406.578674,516.610962 332.939178,532.584656 
	C253.547974,549.805908 182.117859,530.262939 119.176323,479.697021 
	C70.219948,440.366486 39.861343,389.097839 28.477760,327.618347 
	C14.851507,254.026825 30.562258,186.092667 74.976562,125.808113 
	C112.588081,74.757149 162.715530,41.305218 224.738693,26.756723 
	C239.379349,23.322531 254.477081,21.836893 270.074219,19.341335 
	C270.074219,63.818352 270.074219,107.189629 270.074219,150.935837 
	C278.556305,150.935837 286.495178,150.935837 294.768982,150.935837 
	C294.768982,160.363129 294.768982,169.420578 294.768982,178.941467 
	C286.661346,178.941467 278.586304,178.941467 270.062134,178.941467 
	C270.062134,202.461945 270.062134,225.528809 270.062134,248.796112 
	C257.319550,248.796112 245.035629,248.796112 232.481659,248.796112 
	C232.481659,190.459229 232.481659,132.052124 232.481659,73.338699 
	C217.890656,77.266220 203.335083,81.943802 189.718018,89.110367 
	C188.584839,89.706749 188.677826,92.521950 188.079498,94.264503 
	C185.232864,102.555099 182.349274,110.833031 179.469055,119.112068 
	C175.839050,129.546341 172.199554,139.977310 168.582031,150.358368 
	C169.295898,150.714294 169.608139,151.016495 169.835815,150.962433 
	C180.867416,148.343277 185.207870,154.548935 189.123718,163.746902 
	C198.395615,185.525711 208.726059,206.853806 218.616226,228.369781 
	C218.948593,229.092834 219.147934,229.877045 219.603836,231.195312 
	C207.544769,231.195312 195.906693,231.332764 184.280151,231.028824 
	C182.752823,230.988907 180.659698,228.991821 179.885498,227.390289 
	C172.031616,211.143692 164.397446,194.790894 156.417374,177.864807 
	C153.124664,183.502609 150.045013,188.724060 147.015076,193.974197 
	C140.548508,205.179169 134.227249,216.471313 127.532532,227.537842 
	C126.481071,229.275909 123.813217,230.999374 121.842468,231.058716 
	C110.690292,231.394440 99.522789,231.221069 87.253616,231.221069 
	C97.718231,212.856277 107.798546,195.269608 117.776901,177.625290 
	C127.734604,160.017471 135.612854,141.498276 141.919907,122.103920 
	C117.499451,135.454697 83.252556,195.532791 74.894524,237.199234 
	C62.567348,298.652618 79.934189,358.106812 103.618683,392.492523 
	C109.277588,378.103088 109.390945,363.747467 105.579918,349.060181 
	C103.628914,341.541229 101.718910,333.857239 101.194221,326.152222 
	C99.749878,304.942627 110.477715,289.807922 126.918106,277.929779 
	C128.989532,276.433167 131.159943,275.073608 133.312485,273.631775 
	C129.832794,281.730255 125.940720,289.366150 123.239037,297.402222 
	C118.947861,310.166168 121.252975,322.946747 124.391785,335.680481 
	C126.329491,343.541473 128.126541,351.535858 128.859406,359.573120 
	C130.120514,373.403229 124.543381,384.822845 114.511810,394.185577 
	C112.457260,396.103088 110.373238,397.989044 108.059898,400.112518 
	C117.042526,413.155884 127.482552,424.689087 138.980057,435.294617 
	C166.803116,460.959198 199.223999,478.470001 236.078033,486.435120 
	C295.929840,499.370605 351.062592,487.235260 401.054901,451.895935 
	C402.276764,451.032227 403.759064,449.429932 403.781403,448.148773 
	C403.989746,436.200928 403.904785,424.247955 403.904785,411.781067 
	C358.166412,411.781067 312.925690,411.781067 267.364532,411.781067 
	C267.364532,402.332489 267.364532,393.400238 268.151245,384.223083 
	C325.781555,383.976746 382.625183,383.973297 439.468781,383.983002 
	C441.292450,383.983307 443.116089,384.118591 444.939758,384.190948 
z"/>
<path fill="#FEFAFA" opacity="1.000000" stroke="none" 
	d="
M441.000000,178.959518 
	C396.862579,178.959442 353.225128,178.959442 309.293701,178.959442 
	C309.293701,169.618347 309.293701,160.562439 309.293701,151.073334 
	C354.783203,151.073334 400.159576,151.073334 446.813202,151.073334 
	C402.943604,97.664291 348.442322,68.449287 279.375244,67.648750 
	C279.375244,65.521629 279.375244,63.489807 279.375244,60.397213 
	C290.462433,61.360332 301.575836,61.786133 312.521027,63.372448 
	C353.941193,69.375587 390.079590,87.176331 421.294220,114.619026 
	C432.351624,124.340309 441.710693,136.024933 451.555695,147.071182 
	C453.960480,149.769363 456.024780,151.460602 459.838531,151.130432 
	C464.303589,150.743881 468.827759,151.040039 474.133972,151.040039 
	C452.440521,117.679283 424.837097,91.329399 390.442383,72.521194 
	C356.047333,53.712772 318.999817,44.389603 279.344421,44.920662 
	C279.344421,36.613510 279.344421,28.697046 279.344421,20.132015 
	C322.964722,20.512547 364.091217,30.763313 402.351654,52.216240 
	C460.379272,84.752800 497.328461,134.483246 515.445679,178.959595 
	C490.681488,178.959595 466.090759,178.959595 441.000000,178.959518 
z"/>
<path fill="#FDFAF9" opacity="1.000000" stroke="none" 
	d="
M353.413788,353.940643 
	C353.356567,354.160919 353.299377,354.381195 352.968323,354.968689 
	C352.454895,355.480469 352.364929,355.689453 352.424652,355.962860 
	C348.695282,360.123779 344.965881,364.284698 340.897400,368.832336 
	C340.258667,369.405487 340.125885,369.674286 340.159912,370.025513 
	C340.159912,370.025513 340.021088,370.033173 339.815216,370.158508 
	C339.323029,370.459137 339.198792,370.713562 339.236603,371.047180 
	C339.236603,371.047180 339.029327,371.062927 338.862793,371.199127 
	C338.450012,371.476959 338.356415,371.686737 338.415497,371.964630 
	C337.342773,373.071655 336.270081,374.178680 334.712708,375.671875 
	C333.486542,376.080597 332.745087,376.103180 332.003601,376.125732 
	C320.306213,366.867340 308.608826,357.608948 296.833649,348.288971 
	C288.043793,358.906952 276.805664,368.114014 263.888519,375.384338 
	C260.839203,377.100586 259.162201,377.156158 256.934021,374.222839 
	C251.716980,367.354675 246.125839,360.770691 241.279282,354.802094 
	C249.967575,347.773590 258.920074,341.478546 266.702118,333.970367 
	C274.529816,326.418152 279.254578,316.637482 282.318115,305.446289 
	C270.660797,305.446289 259.602753,305.446289 248.245392,305.446289 
	C248.245392,296.213959 248.245392,287.449188 248.245392,278.176086 
	C258.618439,278.176086 269.018341,278.176086 279.822754,278.176086 
	C279.822754,272.426453 279.822754,267.165527 279.822754,261.538757 
	C292.442841,261.538757 304.653442,261.538757 317.338806,261.538757 
	C317.338806,266.934937 317.338806,272.195374 317.338806,277.941284 
	C327.538727,277.941284 337.283142,277.941284 347.791962,277.941284 
	C347.791962,286.675110 347.887146,294.939178 347.627563,303.192108 
	C347.604553,303.923676 345.283539,305.149628 344.005798,305.181458 
	C336.684509,305.363770 329.352936,305.373291 322.031311,305.187683 
	C318.957916,305.109711 318.151306,306.540619 316.877045,309.162933 
	C312.274780,318.634094 316.736450,325.157440 323.453735,330.666046 
	C332.823120,338.349518 342.630341,345.499115 352.667999,353.202850 
	C353.195129,353.665863 353.304443,353.803253 353.413788,353.940643 
z"/>
<path fill="#FDFBF9" opacity="1.000000" stroke="none" 
	d="
M343.092651,338.496094 
	C342.708893,337.655914 342.000519,336.819122 341.991760,335.975098 
	C341.907562,327.860687 341.941345,319.745087 341.941345,311.151245 
	C348.501190,311.151245 354.582764,311.151245 361.131012,311.151245 
	C361.131012,296.287811 361.131012,281.901398 361.131012,267.229248 
	C372.996857,267.229248 384.383820,267.229248 396.008575,267.229248 
	C396.008575,303.053925 396.008575,338.743378 396.008575,374.969208 
	C392.469604,374.969208 389.189056,374.969208 385.014465,374.961365 
	C381.749115,375.010284 379.377777,375.067047 377.006470,375.123810 
	C375.933075,375.069397 374.859680,375.014984 372.937653,374.953369 
	C368.430511,374.802765 364.772003,374.659424 361.113495,374.516052 
	C361.186707,369.322662 361.259888,364.129303 361.343475,358.075714 
	C361.265869,355.798981 361.177856,354.382477 361.089874,352.965942 
	C361.160614,348.947388 361.231384,344.928864 361.197479,340.035950 
	C355.092743,338.939758 349.092712,338.717926 343.092651,338.496094 
z"/>
<path fill="#FEFCFB" opacity="1.000000" stroke="none" 
	d="
M444.970093,352.000000 
	C444.970215,359.793945 444.970215,367.087921 444.970215,374.669495 
	C433.290527,374.669495 421.911530,374.669495 410.264648,374.669495 
	C410.264648,338.930725 410.264648,303.245697 410.264648,267.280579 
	C421.665894,267.280579 433.048950,267.280579 444.969940,267.280579 
	C444.969940,295.383423 444.969940,323.441711 444.970093,352.000000 
z"/>
<path fill="#FDF9F8" opacity="1.000000" stroke="none" 
	d="
M187.577835,261.494720 
	C180.641174,272.725250 175.128937,284.550476 172.038712,297.464203 
	C168.834396,310.854645 171.410217,323.773224 174.335678,336.829010 
	C176.719254,347.466492 179.223297,358.258759 179.799072,369.082123 
	C181.036209,392.338104 170.144730,409.902344 151.461685,423.003021 
	C148.065399,425.384491 144.426758,427.421844 140.879745,429.584839 
	C140.482895,429.826782 139.952988,429.850525 138.421692,430.259094 
	C139.575134,428.152191 140.323013,426.673920 141.170624,425.255280 
	C148.795868,412.492981 154.139267,398.691559 154.133636,383.894073 
	C154.129471,372.944031 151.401260,361.959381 149.509186,351.055634 
	C147.586243,339.973999 144.298019,329.178131 145.650558,317.612244 
	C147.818619,299.072662 156.883499,284.507111 170.481003,272.467255 
	C175.311020,268.190521 180.857483,264.722961 186.617966,261.011414 
	C187.298660,261.256165 187.438248,261.375458 187.577835,261.494720 
z"/>
<path fill="#FDF7F6" opacity="1.000000" stroke="none" 
	d="
M205.590469,416.608826 
	C200.264206,420.486603 195.193512,424.119080 190.122803,427.751587 
	C189.821976,427.445984 189.521149,427.140411 189.220322,426.834808 
	C190.484207,424.513184 191.691360,422.158508 193.021103,419.875275 
	C202.458496,403.671021 202.731766,386.603912 198.658936,368.789246 
	C196.529312,359.474243 194.682739,349.822968 194.749557,340.337952 
	C194.863541,324.159637 203.454697,311.819824 215.902939,302.032623 
	C218.923080,299.658081 222.061874,297.434418 225.845642,295.948029 
	C223.325089,301.466431 220.738907,306.956024 218.297272,312.509155 
	C212.774078,325.070892 212.726059,337.896881 216.339706,350.975067 
	C218.187454,357.662262 219.937210,364.413666 221.110977,371.242676 
	C224.154892,388.952087 218.891403,404.014893 205.590469,416.608826 
z"/>
<path fill="#C70C0C" opacity="1.000000" stroke="none" 
	d="
M444.696350,383.847290 
	C443.116089,384.118591 441.292450,383.983307 439.468781,383.983002 
	C382.625183,383.973297 325.781555,383.976746 268.471252,383.931213 
	C269.416992,383.585022 270.829254,383.025238 272.241943,383.024139 
	C328.514862,382.979370 384.787842,382.982178 441.060791,383.006134 
	C442.191589,383.006622 443.322235,383.330597 444.696350,383.847290 
z"/>
<path fill="#C70C0C" opacity="1.000000" stroke="none" 
	d="
M343.448730,338.683411 
	C349.092712,338.717926 355.092743,338.939758 361.066681,339.589813 
	C355.295319,339.635590 349.550049,339.253174 343.448730,338.683411 
z"/>
<path fill="#C70C0C" opacity="1.000000" stroke="none" 
	d="
M361.286987,374.904114 
	C364.772003,374.659424 368.430511,374.802765 372.540955,375.032837 
	C369.148743,375.177124 365.304596,375.234650 361.286987,374.904114 
z"/>
<path fill="#C70C0C" opacity="1.000000" stroke="none" 
	d="
M377.290955,375.380493 
	C379.377777,375.067047 381.749115,375.010284 384.557281,375.041687 
	C382.521240,375.298981 380.048370,375.468079 377.290955,375.380493 
z"/>
<path fill="#C70C0C" opacity="1.000000" stroke="none" 
	d="
M360.803467,353.191376 
	C361.177856,354.382477 361.265869,355.798981 361.222046,357.624573 
	C360.899170,356.494659 360.708099,354.955750 360.803467,353.191376 
z"/>
<path fill="#C70C0C" opacity="1.000000" stroke="none" 
	d="
M332.205566,376.363098 
	C332.745087,376.103180 333.486542,376.080597 334.594238,375.979248 
	C334.109497,376.133789 333.258484,376.367096 332.205566,376.363098 
z"/>
<path fill="#C70C0C" opacity="1.000000" stroke="none" 
	d="
M353.516479,353.794586 
	C353.304443,353.803253 353.195129,353.665863 353.004395,353.278076 
	C353.155060,353.234619 353.387146,353.441559 353.516479,353.794586 
z"/>
<path fill="#C70C0C" opacity="1.000000" stroke="none" 
	d="
M338.559509,371.887268 
	C338.356415,371.686737 338.450012,371.476959 338.876465,371.302185 
	C338.993134,371.484711 338.875397,371.665009 338.559509,371.887268 
z"/>
<path fill="#C70C0C" opacity="1.000000" stroke="none" 
	d="
M339.419373,370.951233 
	C339.198792,370.713562 339.323029,370.459137 339.824768,370.227356 
	C339.974213,370.450256 339.828186,370.678406 339.419373,370.951233 
z"/>
<path fill="#C70C0C" opacity="1.000000" stroke="none" 
	d="
M340.354187,369.922119 
	C340.125885,369.674286 340.258667,369.405487 340.783813,369.151672 
	C340.940704,369.382477 340.787079,369.627289 340.354187,369.922119 
z"/>
<path fill="#C70C0C" opacity="1.000000" stroke="none" 
	d="
M352.567047,355.883575 
	C352.364929,355.689453 352.454895,355.480469 352.871521,355.296021 
	C352.991302,355.473358 352.878265,355.656067 352.567047,355.883575 
z"/>
<path fill="#FDF9F8" opacity="1.000000" stroke="none" 
	d="
M186.959076,260.947449 
	C187.123428,260.592743 187.487762,260.427460 187.852097,260.262146 
	C187.890076,260.521881 187.928055,260.781586 187.771942,261.268005 
	C187.438248,261.375458 187.298660,261.256165 186.959076,260.947449 
z"/>
</svg>