<svg xmlns="http://www.w3.org/2000/svg" viewBox="0 0 100 100" fill="currentColor" role="img" aria-label="사우나 증기 물결"><g transform="rotate(-15 50 50) translate(10,15) scale(0.0379)"><path fill="currentColor" d="
M1329.200073,1.999994 
	C1328.626099,5.118690 1327.664062,8.508130 1325.817871,11.316273 
	C1282.893066,76.606796 1246.825317,145.484344 1216.996338,217.693863 
	C1187.246460,289.711731 1166.744507,364.297668 1154.438721,441.154785 
	C1145.338989,497.988037 1142.602417,555.148865 1148.252441,612.507080 
	C1153.189087,662.623535 1162.977417,711.915833 1174.948975,760.793457 
	C1190.304688,823.487610 1206.258911,886.044128 1220.784180,948.930359 
	C1237.526367,1021.414185 1249.117432,1094.792114 1251.105835,1169.290039 
	C1256.419922,1368.401733 1191.484741,1539.763916 1047.887695,1679.707397 
	C974.908264,1750.829956 891.618652,1807.017822 799.934937,1851.065796 
	C798.738464,1851.640625 797.487061,1852.101074 795.287537,1852.463745 
	C794.313782,1852.312622 793.766846,1851.773804 793.766846,1851.773804 
	C794.615173,1850.022583 795.247620,1848.121948 796.342407,1846.541504 
	C863.452087,1749.671753 909.215515,1643.144653 939.902405,1529.762573 
	C952.967468,1481.489746 963.354553,1432.664917 969.444885,1383.025879 
	C977.783264,1315.064331 975.150269,1247.464355 962.943604,1180.020874 
	C947.279907,1093.477539 925.671814,1008.314453 905.085083,922.903503 
	C892.826538,872.044739 882.504578,820.822449 876.664490,768.800476 
	C870.885010,717.318115 869.976440,665.787354 875.417114,614.153687 
	C891.698669,459.635315 954.160095,325.731537 1055.769043,209.309570 
	C1129.854492,124.423729 1217.335693,56.768250 1318.220947,6.504344 
	C1319.950928,5.642412 1321.455566,4.328342 1322.532715,2.612606 
	C1324.133423,2.000000 1326.266724,2.000000 1329.200073,1.999994 
z"/><path fill="currentColor" d="
M758.191406,120.208282 
	C738.894470,151.700500 718.587646,182.624908 700.500061,214.796997 
	C655.753845,294.386383 625.688477,379.424622 610.738403,469.536774 
	C601.483887,525.318848 599.925537,581.493469 605.321106,637.858521 
	C610.960693,696.771729 625.573669,753.780579 640.948792,810.674194 
	C655.877075,865.914368 670.654419,921.206909 680.942200,977.557861 
	C690.364441,1029.168213 695.908875,1081.142578 691.484619,1133.620605 
	C683.120728,1232.828369 648.549805,1321.770142 585.874817,1399.538940 
	C549.795471,1444.307251 506.603729,1481.141357 459.749817,1513.987549 
	C425.090546,1538.285034 389.074341,1560.362549 350.067749,1580.265869 
	C347.906586,1580.256226 347.307770,1580.086060 346.708984,1579.916016 
	C392.750763,1501.259155 426.827301,1417.787598 447.969635,1329.064331 
	C456.467987,1293.401245 463.791626,1257.562134 466.798737,1220.954590 
	C469.314148,1190.332397 468.989288,1159.712646 467.014862,1129.074341 
	C462.469055,1058.532471 444.868042,990.531860 426.928223,922.601074 
	C415.454865,879.156128 404.377502,835.625366 396.982971,791.256714 
	C387.362701,733.533569 382.433350,675.537537 388.471375,617.081848 
	C397.060944,533.923706 424.158630,456.981995 467.337189,385.572876 
	C502.511230,327.401794 547.835205,277.984283 598.543030,233.144867 
	C647.099976,190.207443 699.622437,152.692261 755.525757,118.088730 
	C757.226868,118.802887 757.709106,119.505577 758.191406,120.208282 
z"/><path fill="currentColor" d="
M1769.967041,355.971069 
	C1768.280396,359.138458 1766.776855,362.420166 1764.880859,365.456696 
	C1707.243408,457.765015 1661.672485,555.369019 1635.114258,661.298096 
	C1621.655640,714.978821 1615.630981,769.372742 1620.231812,824.704346 
	C1623.414917,862.985291 1631.443237,900.403931 1641.138306,937.462402 
	C1654.103394,987.019714 1667.744751,1036.400146 1680.697632,1085.960449 
	C1691.305664,1126.548462 1700.413818,1167.496216 1705.548340,1209.179565 
	C1712.128540,1262.598999 1713.107422,1316.016602 1706.469727,1369.635376 
	C1697.598877,1441.294189 1676.269043,1508.643921 1639.578979,1570.871826 
	C1604.641479,1630.127563 1558.558960,1679.678345 1505.240234,1722.766968 
	C1454.537109,1763.741943 1399.551392,1798.055908 1340.545776,1828.029297 
	C1338.805298,1827.257324 1338.319580,1826.542358 1337.833862,1825.827393 
	C1365.083008,1789.164062 1390.383545,1751.249023 1410.948242,1710.371338 
	C1443.338135,1645.988037 1465.939697,1578.473145 1476.319824,1506.950806 
	C1482.598145,1463.690796 1486.706665,1420.322998 1486.605347,1376.582397 
	C1486.485107,1324.672241 1478.875854,1273.731567 1466.973999,1223.342285 
	C1454.431885,1170.241455 1441.306030,1117.272461 1429.372559,1064.035767 
	C1417.554443,1011.313782 1409.355713,957.990356 1408.738159,903.801086 
	C1407.530273,797.806580 1435.286011,699.866455 1491.113037,609.801636 
	C1524.758057,555.522644 1566.706787,508.404419 1614.702148,466.554657 
	C1659.989746,427.065887 1708.460938,391.862823 1759.580078,360.300385 
	C1762.692017,358.379089 1765.943237,356.683472 1769.607910,355.471619 
	C1770.086182,356.060394 1769.966919,355.971039 1769.967041,355.971069 
z"/><path fill="currentColor" d="
M1770.151123,356.096863 
	C1770.123047,355.678406 1769.998047,355.225342 1769.971680,354.766632 
	C1769.967896,354.697662 1770.426270,354.602234 1770.670776,354.519073 
	C1770.794556,354.927612 1770.918457,355.336182 1770.504639,355.857880 
	C1769.966919,355.971039 1770.086182,356.060394 1770.151123,356.096863 
z"/><path fill="currentColor" d="
M794.582520,1852.586670 
	C794.116699,1853.082764 793.382202,1853.304565 792.647705,1853.526367 
	C792.662842,1853.036865 792.677979,1852.547363 793.229980,1851.915771 
	C793.766846,1851.773804 794.313782,1852.312622 794.582520,1852.586670 
z"/></g></svg>